<?xml version="1.0" standalone="no"?><!DOCTYPE svg PUBLIC "-//W3C//DTD SVG 1.1//EN" "http://www.w3.org/Graphics/SVG/1.1/DTD/svg11.dtd">
<svg x="0.0000mm" y="0.0000mm" width="30.6920mm" height="30.6920mm" viewBox="0.0000 0.0000 30.6920 30.6920" version="1.1" xmlns="http://www.w3.org/2000/svg" shape-rendering="crispEdges">
<title>TBarCode - 11.17.1.16949</title>
<desc>BarCode licensed to MEM:TEC-IT Datenverarbeitung GmbH Internal License</desc>
<g fill="rgb(0%,0%,0%)">
</g>
<g fill="rgb(100%,100%,100%)">
<rect x="0.0000" y="0.0000" width="30.6920" height="30.6920" />
</g>
<g fill="rgb(0%,0%,0%)">
</g>
<g fill="rgb(0%,0%,0%)">
<rect x="0.0000" y="0.0000" width="1.0583" height="1.0583" />
<rect x="1.0583" y="0.0000" width="1.0583" height="1.0583" />
<rect x="2.1167" y="0.0000" width="1.0583" height="1.0583" />
<rect x="3.1750" y="0.0000" width="1.0583" height="1.0583" />
<rect x="4.2334" y="0.0000" width="1.0583" height="1.0583" />
<rect x="5.2917" y="0.0000" width="1.0583" height="1.0583" />
<rect x="6.3501" y="0.0000" width="1.0583" height="1.0583" />
<rect x="8.4668" y="0.0000" width="1.0583" height="1.0583" />
<rect x="9.5251" y="0.0000" width="1.0583" height="1.0583" />
<rect x="10.5834" y="0.0000" width="1.0583" height="1.0583" />
<rect x="11.6418" y="0.0000" width="1.0583" height="1.0583" />
<rect x="13.7585" y="0.0000" width="1.0583" height="1.0583" />
<rect x="14.8168" y="0.0000" width="1.0583" height="1.0583" />
<rect x="15.8752" y="0.0000" width="1.0583" height="1.0583" />
<rect x="19.0502" y="0.0000" width="1.0583" height="1.0583" />
<rect x="23.2836" y="0.0000" width="1.0583" height="1.0583" />
<rect x="24.3419" y="0.0000" width="1.0583" height="1.0583" />
<rect x="25.4003" y="0.0000" width="1.0583" height="1.0583" />
<rect x="26.4586" y="0.0000" width="1.0583" height="1.0583" />
<rect x="27.5170" y="0.0000" width="1.0583" height="1.0583" />
<rect x="28.5753" y="0.0000" width="1.0583" height="1.0583" />
<rect x="29.6337" y="0.0000" width="1.0583" height="1.0583" />
</g>
<g fill="rgb(0%,0%,0%)">
<rect x="0.0000" y="1.0583" width="1.0583" height="1.0583" />
<rect x="6.3501" y="1.0583" width="1.0583" height="1.0583" />
<rect x="11.6418" y="1.0583" width="1.0583" height="1.0583" />
<rect x="12.7001" y="1.0583" width="1.0583" height="1.0583" />
<rect x="13.7585" y="1.0583" width="1.0583" height="1.0583" />
<rect x="14.8168" y="1.0583" width="1.0583" height="1.0583" />
<rect x="15.8752" y="1.0583" width="1.0583" height="1.0583" />
<rect x="17.9919" y="1.0583" width="1.0583" height="1.0583" />
<rect x="20.1086" y="1.0583" width="1.0583" height="1.0583" />
<rect x="21.1669" y="1.0583" width="1.0583" height="1.0583" />
<rect x="23.2836" y="1.0583" width="1.0583" height="1.0583" />
<rect x="29.6337" y="1.0583" width="1.0583" height="1.0583" />
</g>
<g fill="rgb(0%,0%,0%)">
<rect x="0.0000" y="2.1167" width="1.0583" height="1.0583" />
<rect x="2.1167" y="2.1167" width="1.0583" height="1.0583" />
<rect x="3.1750" y="2.1167" width="1.0583" height="1.0583" />
<rect x="4.2334" y="2.1167" width="1.0583" height="1.0583" />
<rect x="6.3501" y="2.1167" width="1.0583" height="1.0583" />
<rect x="9.5251" y="2.1167" width="1.0583" height="1.0583" />
<rect x="11.6418" y="2.1167" width="1.0583" height="1.0583" />
<rect x="13.7585" y="2.1167" width="1.0583" height="1.0583" />
<rect x="14.8168" y="2.1167" width="1.0583" height="1.0583" />
<rect x="20.1086" y="2.1167" width="1.0583" height="1.0583" />
<rect x="21.1669" y="2.1167" width="1.0583" height="1.0583" />
<rect x="23.2836" y="2.1167" width="1.0583" height="1.0583" />
<rect x="25.4003" y="2.1167" width="1.0583" height="1.0583" />
<rect x="26.4586" y="2.1167" width="1.0583" height="1.0583" />
<rect x="27.5170" y="2.1167" width="1.0583" height="1.0583" />
<rect x="29.6337" y="2.1167" width="1.0583" height="1.0583" />
</g>
<g fill="rgb(0%,0%,0%)">
<rect x="0.0000" y="3.1750" width="1.0583" height="1.0583" />
<rect x="2.1167" y="3.1750" width="1.0583" height="1.0583" />
<rect x="3.1750" y="3.1750" width="1.0583" height="1.0583" />
<rect x="4.2334" y="3.1750" width="1.0583" height="1.0583" />
<rect x="6.3501" y="3.1750" width="1.0583" height="1.0583" />
<rect x="10.5834" y="3.1750" width="1.0583" height="1.0583" />
<rect x="11.6418" y="3.1750" width="1.0583" height="1.0583" />
<rect x="14.8168" y="3.1750" width="1.0583" height="1.0583" />
<rect x="15.8752" y="3.1750" width="1.0583" height="1.0583" />
<rect x="17.9919" y="3.1750" width="1.0583" height="1.0583" />
<rect x="23.2836" y="3.1750" width="1.0583" height="1.0583" />
<rect x="25.4003" y="3.1750" width="1.0583" height="1.0583" />
<rect x="26.4586" y="3.1750" width="1.0583" height="1.0583" />
<rect x="27.5170" y="3.1750" width="1.0583" height="1.0583" />
<rect x="29.6337" y="3.1750" width="1.0583" height="1.0583" />
</g>
<g fill="rgb(0%,0%,0%)">
<rect x="0.0000" y="4.2334" width="1.0583" height="1.0583" />
<rect x="2.1167" y="4.2334" width="1.0583" height="1.0583" />
<rect x="3.1750" y="4.2334" width="1.0583" height="1.0583" />
<rect x="4.2334" y="4.2334" width="1.0583" height="1.0583" />
<rect x="6.3501" y="4.2334" width="1.0583" height="1.0583" />
<rect x="10.5834" y="4.2334" width="1.0583" height="1.0583" />
<rect x="11.6418" y="4.2334" width="1.0583" height="1.0583" />
<rect x="12.7001" y="4.2334" width="1.0583" height="1.0583" />
<rect x="13.7585" y="4.2334" width="1.0583" height="1.0583" />
<rect x="15.8752" y="4.2334" width="1.0583" height="1.0583" />
<rect x="17.9919" y="4.2334" width="1.0583" height="1.0583" />
<rect x="20.1086" y="4.2334" width="1.0583" height="1.0583" />
<rect x="23.2836" y="4.2334" width="1.0583" height="1.0583" />
<rect x="25.4003" y="4.2334" width="1.0583" height="1.0583" />
<rect x="26.4586" y="4.2334" width="1.0583" height="1.0583" />
<rect x="27.5170" y="4.2334" width="1.0583" height="1.0583" />
<rect x="29.6337" y="4.2334" width="1.0583" height="1.0583" />
</g>
<g fill="rgb(0%,0%,0%)">
<rect x="0.0000" y="5.2917" width="1.0583" height="1.0583" />
<rect x="6.3501" y="5.2917" width="1.0583" height="1.0583" />
<rect x="9.5251" y="5.2917" width="1.0583" height="1.0583" />
<rect x="11.6418" y="5.2917" width="1.0583" height="1.0583" />
<rect x="13.7585" y="5.2917" width="1.0583" height="1.0583" />
<rect x="14.8168" y="5.2917" width="1.0583" height="1.0583" />
<rect x="19.0502" y="5.2917" width="1.0583" height="1.0583" />
<rect x="21.1669" y="5.2917" width="1.0583" height="1.0583" />
<rect x="23.2836" y="5.2917" width="1.0583" height="1.0583" />
<rect x="29.6337" y="5.2917" width="1.0583" height="1.0583" />
</g>
<g fill="rgb(0%,0%,0%)">
<rect x="0.0000" y="6.3501" width="1.0583" height="1.0583" />
<rect x="1.0583" y="6.3501" width="1.0583" height="1.0583" />
<rect x="2.1167" y="6.3501" width="1.0583" height="1.0583" />
<rect x="3.1750" y="6.3501" width="1.0583" height="1.0583" />
<rect x="4.2334" y="6.3501" width="1.0583" height="1.0583" />
<rect x="5.2917" y="6.3501" width="1.0583" height="1.0583" />
<rect x="6.3501" y="6.3501" width="1.0583" height="1.0583" />
<rect x="8.4668" y="6.3501" width="1.0583" height="1.0583" />
<rect x="10.5834" y="6.3501" width="1.0583" height="1.0583" />
<rect x="12.7001" y="6.3501" width="1.0583" height="1.0583" />
<rect x="14.8168" y="6.3501" width="1.0583" height="1.0583" />
<rect x="16.9335" y="6.3501" width="1.0583" height="1.0583" />
<rect x="19.0502" y="6.3501" width="1.0583" height="1.0583" />
<rect x="21.1669" y="6.3501" width="1.0583" height="1.0583" />
<rect x="23.2836" y="6.3501" width="1.0583" height="1.0583" />
<rect x="24.3419" y="6.3501" width="1.0583" height="1.0583" />
<rect x="25.4003" y="6.3501" width="1.0583" height="1.0583" />
<rect x="26.4586" y="6.3501" width="1.0583" height="1.0583" />
<rect x="27.5170" y="6.3501" width="1.0583" height="1.0583" />
<rect x="28.5753" y="6.3501" width="1.0583" height="1.0583" />
<rect x="29.6337" y="6.3501" width="1.0583" height="1.0583" />
</g>
<g fill="rgb(0%,0%,0%)">
<rect x="8.4668" y="7.4084" width="1.0583" height="1.0583" />
<rect x="9.5251" y="7.4084" width="1.0583" height="1.0583" />
<rect x="12.7001" y="7.4084" width="1.0583" height="1.0583" />
<rect x="14.8168" y="7.4084" width="1.0583" height="1.0583" />
<rect x="19.0502" y="7.4084" width="1.0583" height="1.0583" />
<rect x="20.1086" y="7.4084" width="1.0583" height="1.0583" />
<rect x="21.1669" y="7.4084" width="1.0583" height="1.0583" />
</g>
<g fill="rgb(0%,0%,0%)">
<rect x="0.0000" y="8.4668" width="1.0583" height="1.0583" />
<rect x="1.0583" y="8.4668" width="1.0583" height="1.0583" />
<rect x="3.1750" y="8.4668" width="1.0583" height="1.0583" />
<rect x="4.2334" y="8.4668" width="1.0583" height="1.0583" />
<rect x="6.3501" y="8.4668" width="1.0583" height="1.0583" />
<rect x="9.5251" y="8.4668" width="1.0583" height="1.0583" />
<rect x="12.7001" y="8.4668" width="1.0583" height="1.0583" />
<rect x="13.7585" y="8.4668" width="1.0583" height="1.0583" />
<rect x="14.8168" y="8.4668" width="1.0583" height="1.0583" />
<rect x="15.8752" y="8.4668" width="1.0583" height="1.0583" />
<rect x="16.9335" y="8.4668" width="1.0583" height="1.0583" />
<rect x="17.9919" y="8.4668" width="1.0583" height="1.0583" />
<rect x="23.2836" y="8.4668" width="1.0583" height="1.0583" />
<rect x="29.6337" y="8.4668" width="1.0583" height="1.0583" />
</g>
<g fill="rgb(0%,0%,0%)">
<rect x="1.0583" y="9.5251" width="1.0583" height="1.0583" />
<rect x="3.1750" y="9.5251" width="1.0583" height="1.0583" />
<rect x="7.4084" y="9.5251" width="1.0583" height="1.0583" />
<rect x="8.4668" y="9.5251" width="1.0583" height="1.0583" />
<rect x="10.5834" y="9.5251" width="1.0583" height="1.0583" />
<rect x="14.8168" y="9.5251" width="1.0583" height="1.0583" />
<rect x="17.9919" y="9.5251" width="1.0583" height="1.0583" />
<rect x="19.0502" y="9.5251" width="1.0583" height="1.0583" />
<rect x="20.1086" y="9.5251" width="1.0583" height="1.0583" />
<rect x="22.2252" y="9.5251" width="1.0583" height="1.0583" />
<rect x="24.3419" y="9.5251" width="1.0583" height="1.0583" />
<rect x="25.4003" y="9.5251" width="1.0583" height="1.0583" />
<rect x="27.5170" y="9.5251" width="1.0583" height="1.0583" />
<rect x="28.5753" y="9.5251" width="1.0583" height="1.0583" />
</g>
<g fill="rgb(0%,0%,0%)">
<rect x="1.0583" y="10.5834" width="1.0583" height="1.0583" />
<rect x="3.1750" y="10.5834" width="1.0583" height="1.0583" />
<rect x="4.2334" y="10.5834" width="1.0583" height="1.0583" />
<rect x="5.2917" y="10.5834" width="1.0583" height="1.0583" />
<rect x="6.3501" y="10.5834" width="1.0583" height="1.0583" />
<rect x="9.5251" y="10.5834" width="1.0583" height="1.0583" />
<rect x="12.7001" y="10.5834" width="1.0583" height="1.0583" />
<rect x="14.8168" y="10.5834" width="1.0583" height="1.0583" />
<rect x="17.9919" y="10.5834" width="1.0583" height="1.0583" />
<rect x="19.0502" y="10.5834" width="1.0583" height="1.0583" />
<rect x="21.1669" y="10.5834" width="1.0583" height="1.0583" />
<rect x="24.3419" y="10.5834" width="1.0583" height="1.0583" />
<rect x="25.4003" y="10.5834" width="1.0583" height="1.0583" />
<rect x="27.5170" y="10.5834" width="1.0583" height="1.0583" />
</g>
<g fill="rgb(0%,0%,0%)">
<rect x="1.0583" y="11.6418" width="1.0583" height="1.0583" />
<rect x="4.2334" y="11.6418" width="1.0583" height="1.0583" />
<rect x="5.2917" y="11.6418" width="1.0583" height="1.0583" />
<rect x="7.4084" y="11.6418" width="1.0583" height="1.0583" />
<rect x="8.4668" y="11.6418" width="1.0583" height="1.0583" />
<rect x="14.8168" y="11.6418" width="1.0583" height="1.0583" />
<rect x="15.8752" y="11.6418" width="1.0583" height="1.0583" />
<rect x="17.9919" y="11.6418" width="1.0583" height="1.0583" />
<rect x="19.0502" y="11.6418" width="1.0583" height="1.0583" />
<rect x="20.1086" y="11.6418" width="1.0583" height="1.0583" />
<rect x="21.1669" y="11.6418" width="1.0583" height="1.0583" />
<rect x="22.2252" y="11.6418" width="1.0583" height="1.0583" />
<rect x="23.2836" y="11.6418" width="1.0583" height="1.0583" />
<rect x="24.3419" y="11.6418" width="1.0583" height="1.0583" />
<rect x="26.4586" y="11.6418" width="1.0583" height="1.0583" />
<rect x="29.6337" y="11.6418" width="1.0583" height="1.0583" />
</g>
<g fill="rgb(0%,0%,0%)">
<rect x="1.0583" y="12.7001" width="1.0583" height="1.0583" />
<rect x="2.1167" y="12.7001" width="1.0583" height="1.0583" />
<rect x="3.1750" y="12.7001" width="1.0583" height="1.0583" />
<rect x="6.3501" y="12.7001" width="1.0583" height="1.0583" />
<rect x="7.4084" y="12.7001" width="1.0583" height="1.0583" />
<rect x="8.4668" y="12.7001" width="1.0583" height="1.0583" />
<rect x="9.5251" y="12.7001" width="1.0583" height="1.0583" />
<rect x="10.5834" y="12.7001" width="1.0583" height="1.0583" />
<rect x="13.7585" y="12.7001" width="1.0583" height="1.0583" />
<rect x="14.8168" y="12.7001" width="1.0583" height="1.0583" />
<rect x="16.9335" y="12.7001" width="1.0583" height="1.0583" />
<rect x="20.1086" y="12.7001" width="1.0583" height="1.0583" />
<rect x="23.2836" y="12.7001" width="1.0583" height="1.0583" />
<rect x="24.3419" y="12.7001" width="1.0583" height="1.0583" />
<rect x="29.6337" y="12.7001" width="1.0583" height="1.0583" />
</g>
<g fill="rgb(0%,0%,0%)">
<rect x="0.0000" y="13.7585" width="1.0583" height="1.0583" />
<rect x="4.2334" y="13.7585" width="1.0583" height="1.0583" />
<rect x="7.4084" y="13.7585" width="1.0583" height="1.0583" />
<rect x="8.4668" y="13.7585" width="1.0583" height="1.0583" />
<rect x="10.5834" y="13.7585" width="1.0583" height="1.0583" />
<rect x="12.7001" y="13.7585" width="1.0583" height="1.0583" />
<rect x="23.2836" y="13.7585" width="1.0583" height="1.0583" />
<rect x="24.3419" y="13.7585" width="1.0583" height="1.0583" />
<rect x="25.4003" y="13.7585" width="1.0583" height="1.0583" />
<rect x="26.4586" y="13.7585" width="1.0583" height="1.0583" />
<rect x="27.5170" y="13.7585" width="1.0583" height="1.0583" />
<rect x="28.5753" y="13.7585" width="1.0583" height="1.0583" />
<rect x="29.6337" y="13.7585" width="1.0583" height="1.0583" />
</g>
<g fill="rgb(0%,0%,0%)">
<rect x="0.0000" y="14.8168" width="1.0583" height="1.0583" />
<rect x="2.1167" y="14.8168" width="1.0583" height="1.0583" />
<rect x="6.3501" y="14.8168" width="1.0583" height="1.0583" />
<rect x="7.4084" y="14.8168" width="1.0583" height="1.0583" />
<rect x="8.4668" y="14.8168" width="1.0583" height="1.0583" />
<rect x="9.5251" y="14.8168" width="1.0583" height="1.0583" />
<rect x="14.8168" y="14.8168" width="1.0583" height="1.0583" />
<rect x="15.8752" y="14.8168" width="1.0583" height="1.0583" />
<rect x="17.9919" y="14.8168" width="1.0583" height="1.0583" />
<rect x="19.0502" y="14.8168" width="1.0583" height="1.0583" />
<rect x="20.1086" y="14.8168" width="1.0583" height="1.0583" />
<rect x="21.1669" y="14.8168" width="1.0583" height="1.0583" />
<rect x="22.2252" y="14.8168" width="1.0583" height="1.0583" />
<rect x="23.2836" y="14.8168" width="1.0583" height="1.0583" />
<rect x="25.4003" y="14.8168" width="1.0583" height="1.0583" />
<rect x="27.5170" y="14.8168" width="1.0583" height="1.0583" />
<rect x="29.6337" y="14.8168" width="1.0583" height="1.0583" />
</g>
<g fill="rgb(0%,0%,0%)">
<rect x="1.0583" y="15.8752" width="1.0583" height="1.0583" />
<rect x="10.5834" y="15.8752" width="1.0583" height="1.0583" />
<rect x="12.7001" y="15.8752" width="1.0583" height="1.0583" />
<rect x="13.7585" y="15.8752" width="1.0583" height="1.0583" />
<rect x="14.8168" y="15.8752" width="1.0583" height="1.0583" />
<rect x="16.9335" y="15.8752" width="1.0583" height="1.0583" />
<rect x="19.0502" y="15.8752" width="1.0583" height="1.0583" />
<rect x="20.1086" y="15.8752" width="1.0583" height="1.0583" />
<rect x="24.3419" y="15.8752" width="1.0583" height="1.0583" />
<rect x="25.4003" y="15.8752" width="1.0583" height="1.0583" />
<rect x="27.5170" y="15.8752" width="1.0583" height="1.0583" />
<rect x="29.6337" y="15.8752" width="1.0583" height="1.0583" />
</g>
<g fill="rgb(0%,0%,0%)">
<rect x="0.0000" y="16.9335" width="1.0583" height="1.0583" />
<rect x="1.0583" y="16.9335" width="1.0583" height="1.0583" />
<rect x="5.2917" y="16.9335" width="1.0583" height="1.0583" />
<rect x="6.3501" y="16.9335" width="1.0583" height="1.0583" />
<rect x="7.4084" y="16.9335" width="1.0583" height="1.0583" />
<rect x="8.4668" y="16.9335" width="1.0583" height="1.0583" />
<rect x="10.5834" y="16.9335" width="1.0583" height="1.0583" />
<rect x="11.6418" y="16.9335" width="1.0583" height="1.0583" />
<rect x="12.7001" y="16.9335" width="1.0583" height="1.0583" />
<rect x="15.8752" y="16.9335" width="1.0583" height="1.0583" />
<rect x="20.1086" y="16.9335" width="1.0583" height="1.0583" />
<rect x="21.1669" y="16.9335" width="1.0583" height="1.0583" />
<rect x="22.2252" y="16.9335" width="1.0583" height="1.0583" />
<rect x="26.4586" y="16.9335" width="1.0583" height="1.0583" />
</g>
<g fill="rgb(0%,0%,0%)">
<rect x="0.0000" y="17.9919" width="1.0583" height="1.0583" />
<rect x="5.2917" y="17.9919" width="1.0583" height="1.0583" />
<rect x="7.4084" y="17.9919" width="1.0583" height="1.0583" />
<rect x="8.4668" y="17.9919" width="1.0583" height="1.0583" />
<rect x="10.5834" y="17.9919" width="1.0583" height="1.0583" />
<rect x="11.6418" y="17.9919" width="1.0583" height="1.0583" />
<rect x="15.8752" y="17.9919" width="1.0583" height="1.0583" />
<rect x="19.0502" y="17.9919" width="1.0583" height="1.0583" />
<rect x="20.1086" y="17.9919" width="1.0583" height="1.0583" />
<rect x="25.4003" y="17.9919" width="1.0583" height="1.0583" />
<rect x="27.5170" y="17.9919" width="1.0583" height="1.0583" />
<rect x="28.5753" y="17.9919" width="1.0583" height="1.0583" />
</g>
<g fill="rgb(0%,0%,0%)">
<rect x="0.0000" y="19.0502" width="1.0583" height="1.0583" />
<rect x="1.0583" y="19.0502" width="1.0583" height="1.0583" />
<rect x="2.1167" y="19.0502" width="1.0583" height="1.0583" />
<rect x="3.1750" y="19.0502" width="1.0583" height="1.0583" />
<rect x="4.2334" y="19.0502" width="1.0583" height="1.0583" />
<rect x="6.3501" y="19.0502" width="1.0583" height="1.0583" />
<rect x="7.4084" y="19.0502" width="1.0583" height="1.0583" />
<rect x="12.7001" y="19.0502" width="1.0583" height="1.0583" />
<rect x="13.7585" y="19.0502" width="1.0583" height="1.0583" />
<rect x="14.8168" y="19.0502" width="1.0583" height="1.0583" />
<rect x="15.8752" y="19.0502" width="1.0583" height="1.0583" />
<rect x="16.9335" y="19.0502" width="1.0583" height="1.0583" />
<rect x="17.9919" y="19.0502" width="1.0583" height="1.0583" />
<rect x="20.1086" y="19.0502" width="1.0583" height="1.0583" />
<rect x="25.4003" y="19.0502" width="1.0583" height="1.0583" />
<rect x="26.4586" y="19.0502" width="1.0583" height="1.0583" />
<rect x="29.6337" y="19.0502" width="1.0583" height="1.0583" />
</g>
<g fill="rgb(0%,0%,0%)">
<rect x="0.0000" y="20.1086" width="1.0583" height="1.0583" />
<rect x="1.0583" y="20.1086" width="1.0583" height="1.0583" />
<rect x="8.4668" y="20.1086" width="1.0583" height="1.0583" />
<rect x="10.5834" y="20.1086" width="1.0583" height="1.0583" />
<rect x="11.6418" y="20.1086" width="1.0583" height="1.0583" />
<rect x="13.7585" y="20.1086" width="1.0583" height="1.0583" />
<rect x="16.9335" y="20.1086" width="1.0583" height="1.0583" />
<rect x="20.1086" y="20.1086" width="1.0583" height="1.0583" />
<rect x="23.2836" y="20.1086" width="1.0583" height="1.0583" />
<rect x="26.4586" y="20.1086" width="1.0583" height="1.0583" />
<rect x="27.5170" y="20.1086" width="1.0583" height="1.0583" />
</g>
<g fill="rgb(0%,0%,0%)">
<rect x="0.0000" y="21.1669" width="1.0583" height="1.0583" />
<rect x="1.0583" y="21.1669" width="1.0583" height="1.0583" />
<rect x="5.2917" y="21.1669" width="1.0583" height="1.0583" />
<rect x="6.3501" y="21.1669" width="1.0583" height="1.0583" />
<rect x="7.4084" y="21.1669" width="1.0583" height="1.0583" />
<rect x="9.5251" y="21.1669" width="1.0583" height="1.0583" />
<rect x="11.6418" y="21.1669" width="1.0583" height="1.0583" />
<rect x="13.7585" y="21.1669" width="1.0583" height="1.0583" />
<rect x="15.8752" y="21.1669" width="1.0583" height="1.0583" />
<rect x="16.9335" y="21.1669" width="1.0583" height="1.0583" />
<rect x="17.9919" y="21.1669" width="1.0583" height="1.0583" />
<rect x="21.1669" y="21.1669" width="1.0583" height="1.0583" />
<rect x="22.2252" y="21.1669" width="1.0583" height="1.0583" />
<rect x="23.2836" y="21.1669" width="1.0583" height="1.0583" />
<rect x="24.3419" y="21.1669" width="1.0583" height="1.0583" />
<rect x="25.4003" y="21.1669" width="1.0583" height="1.0583" />
<rect x="26.4586" y="21.1669" width="1.0583" height="1.0583" />
<rect x="27.5170" y="21.1669" width="1.0583" height="1.0583" />
<rect x="28.5753" y="21.1669" width="1.0583" height="1.0583" />
</g>
<g fill="rgb(0%,0%,0%)">
<rect x="8.4668" y="22.2252" width="1.0583" height="1.0583" />
<rect x="9.5251" y="22.2252" width="1.0583" height="1.0583" />
<rect x="12.7001" y="22.2252" width="1.0583" height="1.0583" />
<rect x="13.7585" y="22.2252" width="1.0583" height="1.0583" />
<rect x="15.8752" y="22.2252" width="1.0583" height="1.0583" />
<rect x="17.9919" y="22.2252" width="1.0583" height="1.0583" />
<rect x="19.0502" y="22.2252" width="1.0583" height="1.0583" />
<rect x="21.1669" y="22.2252" width="1.0583" height="1.0583" />
<rect x="25.4003" y="22.2252" width="1.0583" height="1.0583" />
<rect x="26.4586" y="22.2252" width="1.0583" height="1.0583" />
</g>
<g fill="rgb(0%,0%,0%)">
<rect x="0.0000" y="23.2836" width="1.0583" height="1.0583" />
<rect x="1.0583" y="23.2836" width="1.0583" height="1.0583" />
<rect x="2.1167" y="23.2836" width="1.0583" height="1.0583" />
<rect x="3.1750" y="23.2836" width="1.0583" height="1.0583" />
<rect x="4.2334" y="23.2836" width="1.0583" height="1.0583" />
<rect x="5.2917" y="23.2836" width="1.0583" height="1.0583" />
<rect x="6.3501" y="23.2836" width="1.0583" height="1.0583" />
<rect x="9.5251" y="23.2836" width="1.0583" height="1.0583" />
<rect x="10.5834" y="23.2836" width="1.0583" height="1.0583" />
<rect x="11.6418" y="23.2836" width="1.0583" height="1.0583" />
<rect x="13.7585" y="23.2836" width="1.0583" height="1.0583" />
<rect x="15.8752" y="23.2836" width="1.0583" height="1.0583" />
<rect x="17.9919" y="23.2836" width="1.0583" height="1.0583" />
<rect x="19.0502" y="23.2836" width="1.0583" height="1.0583" />
<rect x="20.1086" y="23.2836" width="1.0583" height="1.0583" />
<rect x="21.1669" y="23.2836" width="1.0583" height="1.0583" />
<rect x="23.2836" y="23.2836" width="1.0583" height="1.0583" />
<rect x="25.4003" y="23.2836" width="1.0583" height="1.0583" />
<rect x="26.4586" y="23.2836" width="1.0583" height="1.0583" />
</g>
<g fill="rgb(0%,0%,0%)">
<rect x="0.0000" y="24.3419" width="1.0583" height="1.0583" />
<rect x="6.3501" y="24.3419" width="1.0583" height="1.0583" />
<rect x="11.6418" y="24.3419" width="1.0583" height="1.0583" />
<rect x="12.7001" y="24.3419" width="1.0583" height="1.0583" />
<rect x="13.7585" y="24.3419" width="1.0583" height="1.0583" />
<rect x="15.8752" y="24.3419" width="1.0583" height="1.0583" />
<rect x="17.9919" y="24.3419" width="1.0583" height="1.0583" />
<rect x="20.1086" y="24.3419" width="1.0583" height="1.0583" />
<rect x="21.1669" y="24.3419" width="1.0583" height="1.0583" />
<rect x="25.4003" y="24.3419" width="1.0583" height="1.0583" />
<rect x="28.5753" y="24.3419" width="1.0583" height="1.0583" />
<rect x="29.6337" y="24.3419" width="1.0583" height="1.0583" />
</g>
<g fill="rgb(0%,0%,0%)">
<rect x="0.0000" y="25.4003" width="1.0583" height="1.0583" />
<rect x="2.1167" y="25.4003" width="1.0583" height="1.0583" />
<rect x="3.1750" y="25.4003" width="1.0583" height="1.0583" />
<rect x="4.2334" y="25.4003" width="1.0583" height="1.0583" />
<rect x="6.3501" y="25.4003" width="1.0583" height="1.0583" />
<rect x="8.4668" y="25.4003" width="1.0583" height="1.0583" />
<rect x="11.6418" y="25.4003" width="1.0583" height="1.0583" />
<rect x="12.7001" y="25.4003" width="1.0583" height="1.0583" />
<rect x="13.7585" y="25.4003" width="1.0583" height="1.0583" />
<rect x="16.9335" y="25.4003" width="1.0583" height="1.0583" />
<rect x="20.1086" y="25.4003" width="1.0583" height="1.0583" />
<rect x="21.1669" y="25.4003" width="1.0583" height="1.0583" />
<rect x="22.2252" y="25.4003" width="1.0583" height="1.0583" />
<rect x="23.2836" y="25.4003" width="1.0583" height="1.0583" />
<rect x="24.3419" y="25.4003" width="1.0583" height="1.0583" />
<rect x="25.4003" y="25.4003" width="1.0583" height="1.0583" />
<rect x="26.4586" y="25.4003" width="1.0583" height="1.0583" />
<rect x="28.5753" y="25.4003" width="1.0583" height="1.0583" />
<rect x="29.6337" y="25.4003" width="1.0583" height="1.0583" />
</g>
<g fill="rgb(0%,0%,0%)">
<rect x="0.0000" y="26.4586" width="1.0583" height="1.0583" />
<rect x="2.1167" y="26.4586" width="1.0583" height="1.0583" />
<rect x="3.1750" y="26.4586" width="1.0583" height="1.0583" />
<rect x="4.2334" y="26.4586" width="1.0583" height="1.0583" />
<rect x="6.3501" y="26.4586" width="1.0583" height="1.0583" />
<rect x="8.4668" y="26.4586" width="1.0583" height="1.0583" />
<rect x="9.5251" y="26.4586" width="1.0583" height="1.0583" />
<rect x="10.5834" y="26.4586" width="1.0583" height="1.0583" />
<rect x="13.7585" y="26.4586" width="1.0583" height="1.0583" />
<rect x="14.8168" y="26.4586" width="1.0583" height="1.0583" />
<rect x="15.8752" y="26.4586" width="1.0583" height="1.0583" />
<rect x="16.9335" y="26.4586" width="1.0583" height="1.0583" />
<rect x="22.2252" y="26.4586" width="1.0583" height="1.0583" />
<rect x="29.6337" y="26.4586" width="1.0583" height="1.0583" />
</g>
<g fill="rgb(0%,0%,0%)">
<rect x="0.0000" y="27.5170" width="1.0583" height="1.0583" />
<rect x="2.1167" y="27.5170" width="1.0583" height="1.0583" />
<rect x="3.1750" y="27.5170" width="1.0583" height="1.0583" />
<rect x="4.2334" y="27.5170" width="1.0583" height="1.0583" />
<rect x="6.3501" y="27.5170" width="1.0583" height="1.0583" />
<rect x="9.5251" y="27.5170" width="1.0583" height="1.0583" />
<rect x="10.5834" y="27.5170" width="1.0583" height="1.0583" />
<rect x="11.6418" y="27.5170" width="1.0583" height="1.0583" />
<rect x="12.7001" y="27.5170" width="1.0583" height="1.0583" />
<rect x="13.7585" y="27.5170" width="1.0583" height="1.0583" />
<rect x="15.8752" y="27.5170" width="1.0583" height="1.0583" />
<rect x="17.9919" y="27.5170" width="1.0583" height="1.0583" />
<rect x="19.0502" y="27.5170" width="1.0583" height="1.0583" />
<rect x="21.1669" y="27.5170" width="1.0583" height="1.0583" />
<rect x="22.2252" y="27.5170" width="1.0583" height="1.0583" />
<rect x="24.3419" y="27.5170" width="1.0583" height="1.0583" />
<rect x="25.4003" y="27.5170" width="1.0583" height="1.0583" />
<rect x="27.5170" y="27.5170" width="1.0583" height="1.0583" />
<rect x="28.5753" y="27.5170" width="1.0583" height="1.0583" />
<rect x="29.6337" y="27.5170" width="1.0583" height="1.0583" />
</g>
<g fill="rgb(0%,0%,0%)">
<rect x="0.0000" y="28.5753" width="1.0583" height="1.0583" />
<rect x="6.3501" y="28.5753" width="1.0583" height="1.0583" />
<rect x="8.4668" y="28.5753" width="1.0583" height="1.0583" />
<rect x="9.5251" y="28.5753" width="1.0583" height="1.0583" />
<rect x="11.6418" y="28.5753" width="1.0583" height="1.0583" />
<rect x="16.9335" y="28.5753" width="1.0583" height="1.0583" />
<rect x="19.0502" y="28.5753" width="1.0583" height="1.0583" />
<rect x="23.2836" y="28.5753" width="1.0583" height="1.0583" />
<rect x="24.3419" y="28.5753" width="1.0583" height="1.0583" />
<rect x="26.4586" y="28.5753" width="1.0583" height="1.0583" />
<rect x="27.5170" y="28.5753" width="1.0583" height="1.0583" />
<rect x="29.6337" y="28.5753" width="1.0583" height="1.0583" />
</g>
<g fill="rgb(0%,0%,0%)">
<rect x="0.0000" y="29.6337" width="1.0583" height="1.0583" />
<rect x="1.0583" y="29.6337" width="1.0583" height="1.0583" />
<rect x="2.1167" y="29.6337" width="1.0583" height="1.0583" />
<rect x="3.1750" y="29.6337" width="1.0583" height="1.0583" />
<rect x="4.2334" y="29.6337" width="1.0583" height="1.0583" />
<rect x="5.2917" y="29.6337" width="1.0583" height="1.0583" />
<rect x="6.3501" y="29.6337" width="1.0583" height="1.0583" />
<rect x="8.4668" y="29.6337" width="1.0583" height="1.0583" />
<rect x="14.8168" y="29.6337" width="1.0583" height="1.0583" />
<rect x="15.8752" y="29.6337" width="1.0583" height="1.0583" />
<rect x="20.1086" y="29.6337" width="1.0583" height="1.0583" />
<rect x="21.1669" y="29.6337" width="1.0583" height="1.0583" />
<rect x="23.2836" y="29.6337" width="1.0583" height="1.0583" />
<rect x="25.4003" y="29.6337" width="1.0583" height="1.0583" />
</g>
</svg>
